<?xml version="1.0" encoding="utf-8"?>
<!-- Generator: Adobe Illustrator 14.0.0, SVG Export Plug-In . SVG Version: 6.00 Build 43363)  -->
<!DOCTYPE svg PUBLIC "-//W3C//DTD SVG 1.1//EN" "http://www.w3.org/Graphics/SVG/1.1/DTD/svg11.dtd">
<svg version="1.1" id="Layer_1" xmlns="http://www.w3.org/2000/svg" xmlns:xlink="http://www.w3.org/1999/xlink" x="0px" y="0px"
	 width="612px" height="792px" viewBox="0 0 612 792" enable-background="new 0 0 612 792" xml:space="preserve">
<g>
	<polygon fill-rule="evenodd" clip-rule="evenodd" fill="#FFFFFF" points="209,300 401.756,300 401.756,492.756 209,492.756 
		209,300 	"/>
	<path fill-rule="evenodd" clip-rule="evenodd" fill="#034EA2" d="M231.59,311.981h147.576c4.368,0,8.112,3.744,8.112,8.112V472.35
		c0,4.68-3.744,8.424-8.112,8.424H231.59c-4.68,0-8.112-3.744-8.112-8.424V320.094C223.478,315.726,226.91,311.981,231.59,311.981
		L231.59,311.981z"/>
	<path fill-rule="evenodd" clip-rule="evenodd" fill="#F37021" d="M223.478,369.078c2.391,0,5.431,0,7.8,0
		c71.136,0,128.856-7.488,128.856-19.656c0-13.416-57.721-24.336-128.856-24.336c-2.37,0-5.41,0-7.8,0v-3.172
		c5.403-0.171,11.976,0.364,17.472,0.364c76.752,0,138.84,15.6,138.84,33.696c0,18.096-62.088,30.888-138.84,30.888
		c-5.496,0-12.068,0.003-17.472-0.246V369.078L223.478,369.078z"/>
	<path fill-rule="evenodd" clip-rule="evenodd" fill="#FFFFFF" d="M289.622,428.357c0-1.248-0.312-2.496-0.312-4.055
		c0-12.168,9.984-22.152,21.84-22.152c12.168,0,21.84,9.984,21.84,22.152s-9.672,22.15-21.84,22.15
		c-9.048,0-16.849-5.615-20.28-13.727c-1.56,0-3.432,0-5.304,0c-5.616,0-10.92-0.313-15.6-0.938l0,0v9.672h20.592v4.369h-24.96
		v-14.977c-5.928-1.248-9.672-3.432-9.672-5.615s2.808-4.68,9.672-5.928v-13.105L237.83,445.83h-5.616l29.641-42.744h28.704v4.68
		h-20.592v10.92c3.12-0.313,6.864-0.623,11.231-0.623c-4.368,0-8.112,0.623-11.231,1.248v8.111
		c4.368,0.625,9.984,1.248,16.224,1.248c1.248,0,2.496,0,3.432,0V428.357L289.622,428.357z"/>
	<polygon fill-rule="evenodd" clip-rule="evenodd" fill="#FFFFFF" points="368.87,403.086 368.87,445.83 364.19,445.83 
		339.854,411.197 339.854,445.83 335.486,445.83 335.486,403.086 339.854,403.086 364.19,438.029 364.19,403.086 368.87,403.086 	
		"/>
	<path fill-rule="evenodd" clip-rule="evenodd" fill="#034EA2" d="M265.598,426.486c-3.12-0.625-4.992-1.873-4.992-2.809
		s1.872-2.184,4.992-3.119V426.486L265.598,426.486z"/>
	<path fill-rule="evenodd" clip-rule="evenodd" fill="#034EA2" d="M295.862,432.414c11.231-1.248,19.344-3.744,19.344-7.176
		c0-2.809-3.744-5.305-15.912-6.553c7.176,0.936,12.168,3.121,12.168,4.992c0,2.184-7.176,4.057-17.16,4.68
		c-0.312-1.248-0.312-2.496-0.312-4.055c0-9.674,7.8-17.473,17.161-17.473c9.672,0,17.472,7.799,17.472,17.473
		c0,9.672-7.8,17.783-17.472,17.783C304.598,442.086,298.67,438.029,295.862,432.414L295.862,432.414L295.862,432.414z"/>
	<path fill-rule="evenodd" clip-rule="evenodd" fill="#FFFFFF" d="M245.942,466.734c-0.312,0.313-1.872,1.561-3.432,1.561
		c-2.808,0-4.68-2.496-4.68-6.24c0-3.121,1.56-6.24,4.68-6.24c1.56,0,2.808,1.248,3.12,1.871v-0.311
		c0.312-0.313,0.312-0.938,0.624-1.25c-1.248-0.623-2.496-0.936-3.744-0.936c-3.432,0-6.24,2.496-6.24,6.865
		c0,4.367,2.184,7.176,5.928,7.176c1.248,0,2.496-0.313,3.744-1.248V466.734L245.942,466.734z"/>
	<path fill-rule="evenodd" clip-rule="evenodd" fill="#FFFFFF" d="M250.622,456.125c0.624,0,1.872,0,2.496,0
		c1.248,0.313,1.872,1.25,1.872,2.496c0,1.561-0.937,2.496-2.185,2.809c-0.936,0.313-1.872,0-2.184,0V456.125L250.622,456.125z
		 M249.374,468.918c0,0,0.312,0,0.624,0s0.312,0,0.624,0v-6.553h0.624l1.248,1.873l2.184,2.809c0.313,0.623,0.625,1.248,0.937,1.871
		c0.312,0,0.624,0,0.936,0c0.312,0,0.624,0,0.936,0l-0.312-0.623l-0.624-0.938l-3.432-5.303c1.56-0.313,3.12-1.248,3.12-3.744
		c0-1.873-0.936-2.809-3.433-2.809h-3.432V468.918L249.374,468.918z"/>
	<path fill-rule="evenodd" clip-rule="evenodd" fill="#FFFFFF" d="M261.854,456.438h1.248h1.56c0.624,0,0.936,0,1.56,0v-0.313
		c0-0.311,0-0.623,0-0.623h-5.928v13.416h5.928c0-0.313,0-0.623,0-0.623c0-0.313,0-0.313,0-0.625c-0.313,0-0.936,0-1.56,0
		c-0.936,0.313-1.872,0.313-2.808,0.313v-5.928h2.496c0.312,0,0.936,0,1.56,0.311c0-0.311-0.312-0.623-0.312-0.623
		c0-0.313,0.312-0.313,0.312-0.625c-0.624,0-1.248,0-1.56,0h-2.496V456.438L261.854,456.438z"/>
	<path fill-rule="evenodd" clip-rule="evenodd" fill="#FFFFFF" d="M271.214,456.125c0.624,0,1.248,0,2.184,0
		c3.432,0,4.992,1.561,4.992,5.617c0,2.496-0.624,4.68-2.496,5.615c-1.248,0.938-3.12,0.625-4.68,0.625V456.125L271.214,456.125z
		 M269.654,468.918h3.432c1.56,0,3.432-0.313,4.992-1.561c1.248-1.248,1.872-3.119,1.872-5.928c0-1.871-0.312-3.744-1.56-4.992
		c-1.56-1.248-3.12-0.936-4.992-0.936h-3.744V468.918L269.654,468.918z"/>
	<path fill-rule="evenodd" clip-rule="evenodd" fill="#FFFFFF" d="M283.382,468.918c0.313,0,0.625,0,0.936,0
		c0.312,0,0.312,0,0.625,0v-13.416c-0.313,0-0.313,0-0.625,0c-0.312,0-0.624,0-0.936,0V468.918L283.382,468.918z"/>
	<path fill-rule="evenodd" clip-rule="evenodd" fill="#FFFFFF" d="M293.054,456.438c1.248,0,2.496,0,3.432,0v-0.313
		c0-0.311,0-0.623,0-0.623h-8.736c0.313,0,0.313,0.313,0.313,0.623c0,0,0,0.313-0.313,0.313c0.936,0,2.184,0,3.745,0v12.48
		c0.312,0,0.624,0,0.624,0c0.312,0,0.624,0,0.936,0V456.438L293.054,456.438z"/>
	<path fill-rule="evenodd" clip-rule="evenodd" fill="#FFFFFF" d="M304.286,466.109c0,0.625,0,1.248-0.312,1.873
		c0.624,0.623,1.872,1.248,2.808,1.248c2.184,0,4.056-1.873,4.056-4.68c0-4.057-5.304-2.809-5.304-6.24
		c0-1.561,0.936-2.496,2.184-2.496c0.937,0,1.872,0.936,2.185,1.871l0,0c0.312-0.623,0.312-1.248,0.624-1.561
		c-0.624-0.623-1.561-0.936-2.496-0.936c-1.872,0-3.744,1.248-3.744,3.744c0,4.369,5.304,2.809,5.304,6.553
		c0,1.561-0.936,2.809-2.184,2.809c-1.56,0-2.184-0.938-2.809-2.186H304.286L304.286,466.109z"/>
	<path fill-rule="evenodd" clip-rule="evenodd" fill="#FFFFFF" d="M315.519,456.438h1.248h1.56c0.624,0,1.248,0,1.561,0v-0.313
		c0-0.311,0-0.623,0-0.623h-5.929v13.416h6.24c-0.312-0.313-0.312-0.623-0.312-0.623c0-0.313,0-0.313,0.312-0.625
		c-0.624,0-1.248,0-1.561,0c-1.247,0.313-2.184,0.313-3.119,0.313v-5.928h2.496c0.623,0,0.936,0,1.56,0.311c0-0.311,0-0.623,0-0.623
		c0-0.313,0-0.313,0-0.625c-0.624,0-0.937,0-1.56,0h-2.496V456.438L315.519,456.438z"/>
	<path fill-rule="evenodd" clip-rule="evenodd" fill="#FFFFFF" d="M324.878,456.125c0.624,0,1.872,0,2.496,0
		c1.248,0.313,1.56,1.25,1.56,2.496c0,1.561-0.623,2.496-1.872,2.809c-0.935,0.313-1.871,0-2.184,0V456.125L324.878,456.125z
		 M323.318,468.918c0.312,0,0.624,0,0.937,0c0,0,0.312,0,0.623,0v-6.553h0.624l1.248,1.873l1.872,2.809
		c0.312,0.623,0.624,1.248,1.248,1.871c0.312,0,0.625,0,0.936,0c0.313,0,0.624,0,0.937,0l-0.313-0.623l-0.935-0.938l-3.434-5.303
		c1.872-0.313,3.434-1.248,3.434-3.744c0-1.873-0.937-2.809-3.745-2.809h-3.432V468.918L323.318,468.918z"/>
	<path fill-rule="evenodd" clip-rule="evenodd" fill="#FFFFFF" d="M339.23,464.238c-0.313,0.936-0.624,1.561-0.937,2.496h-0.312
		l-1.872-5.928l-1.248-3.432c-0.313-0.625-0.313-1.25-0.624-1.873c-0.313,0-0.624,0-0.624,0c-0.313,0-0.624,0-0.937,0
		c0.624,1.561,3.12,8.736,4.992,13.416h0.313h0.312c0.624-2.184,4.368-12.168,4.68-13.416h-0.312c-0.313,0-0.624,0-0.624,0
		l-0.312,0.313l-0.937,3.119L339.23,464.238L339.23,464.238z"/>
	<path fill-rule="evenodd" clip-rule="evenodd" fill="#FFFFFF" d="M345.782,468.918c0.313,0,0.624,0,0.936,0c0,0,0.313,0,0.625,0
		v-13.416c-0.313,0-0.625,0-0.625,0c-0.312,0-0.623,0-0.936,0V468.918L345.782,468.918z"/>
	<path fill-rule="evenodd" clip-rule="evenodd" fill="#FFFFFF" d="M360.135,466.734c-0.313,0.313-1.873,1.561-3.433,1.561
		c-2.808,0-4.68-2.496-4.68-6.24c0-3.121,1.56-6.24,4.68-6.24c1.56,0,2.808,1.248,3.12,1.871v-0.311
		c0.313-0.313,0.313-0.938,0.624-1.25c-1.248-0.623-2.496-0.936-3.744-0.936c-3.432,0-6.24,2.496-6.24,6.865
		c0,4.367,2.185,7.176,5.929,7.176c1.247,0,2.495-0.313,3.744-1.248V466.734L360.135,466.734z"/>
	<path fill-rule="evenodd" clip-rule="evenodd" fill="#FFFFFF" d="M364.814,456.438h1.248h1.56c0.624,0,1.248,0,1.561,0v-0.313
		c0-0.311,0-0.623,0-0.623h-5.928v13.416h6.239c-0.312-0.313-0.312-0.623-0.312-0.623c0-0.313,0-0.313,0.312-0.625
		c-0.624,0-1.248,0-1.561,0c-1.248,0.313-2.184,0.313-3.119,0.313v-5.928h2.495c0.624,0,0.937,0,1.561,0.311
		c0-0.311,0-0.623,0-0.623c0-0.313,0-0.313,0-0.625c-0.624,0-0.937,0-1.561,0h-2.495V456.438L364.814,456.438z"/>
</g>
</svg>
